<svg xmlns="http://www.w3.org/2000/svg" width="512" height="512"><style></style><path id="Layer" fill-rule="evenodd" d="M364.09 227.88v-61.99l-42.13 13.65v152.79l42.13 13.5v-84.07c0-5.01 4.06-9.08 9.07-9.08 5.02 0 9.08 4.07 9.08 9.08v96.5c0 6.62-2.8 13-7.68 17.51L273.2 469.49c-4.49 4.15-10.33 6.44-16.47 6.44-6.13 0-11.98-2.29-16.47-6.44L138.9 375.77c-4.88-4.51-7.68-10.89-7.68-17.5V153.42c0-6.69 2.85-13.11 7.82-17.63L240.4 43.54c4.47-4.06 10.27-6.3 16.33-6.3 6.07 0 11.86 2.24 16.33 6.3l101.36 92.24c4.97 4.53 7.82 10.96 7.82 17.63v74.47c0 5.01-4.06 9.08-9.08 9.08-5.01 0-9.07-4.07-9.07-9.08zM152.7 147.89l45.66 14.79 49.29-44.86V61.48l-94.95 86.41zm-3.33 18v179.94l42.13-13.5V179.54l-42.13-13.65zm98.28 228.96l-49.35-45.64-45.59 14.61 94.94 87.79v-56.76zm67.5-45.64l-49.35 45.64v56.76l94.95-87.79-45.6-14.61zm45.61-201.32l-94.95-86.41v56.34l13.26 12.08c3.71 3.37 3.98 9.11.61 12.82-3.38 3.7-9.12 3.97-12.82.6l-10.13-9.22-47.08 42.85v158.04l47.08 43.53 47.08-43.53V176.95l-13.97-12.71c-3.71-3.38-3.98-9.12-.61-12.82 3.38-3.71 9.12-3.98 12.82-.61l13.04 11.87 45.67-14.79z" fill="#000"/></svg>